<svg width="325" height="161" viewBox="0 0 325 161" fill="none" xmlns="http://www.w3.org/2000/svg">
<g filter="url(#filter0_d_147_195)">
<path d="M317.543 82.6093C318.467 134.831 213.198 153.008 159.999 153.896C106.8 154.784 7.93033 131.257 7.00661 79.0356C6.08288 26.8142 104.202 7.91163 157.401 7.02355C210.6 6.13546 316.62 30.3879 317.543 82.6093Z" fill="#EA1B1B" shape-rendering="crispEdges"/>
<path d="M317.543 82.6093C318.467 134.831 213.198 153.008 159.999 153.896C106.8 154.784 7.93033 131.257 7.00661 79.0356C6.08288 26.8142 104.202 7.91163 157.401 7.02355C210.6 6.13546 316.62 30.3879 317.543 82.6093Z" stroke="#651818" stroke-opacity="0.62" stroke-width="6" shape-rendering="crispEdges"/>
<path d="M317.543 82.6093C318.467 134.831 213.198 153.008 159.999 153.896C106.8 154.784 7.93033 131.257 7.00661 79.0356C6.08288 26.8142 104.202 7.91163 157.401 7.02355C210.6 6.13546 316.62 30.3879 317.543 82.6093Z" stroke="#361B1B" stroke-opacity="0.2" stroke-width="6" shape-rendering="crispEdges"/>
</g>
<defs>
<filter id="filter0_d_147_195" x="0" y="0" width="324.549" height="160.92" filterUnits="userSpaceOnUse" color-interpolation-filters="sRGB">
<feFlood flood-opacity="0" result="BackgroundImageFix"/>
<feColorMatrix in="SourceAlpha" type="matrix" values="0 0 0 0 0 0 0 0 0 0 0 0 0 0 0 0 0 0 127 0" result="hardAlpha"/>
<feOffset/>
<feGaussianBlur stdDeviation="2"/>
<feComposite in2="hardAlpha" operator="out"/>
<feColorMatrix type="matrix" values="0 0 0 0 0 0 0 0 0 0 0 0 0 0 0 0 0 0 0.25 0"/>
<feBlend mode="normal" in2="BackgroundImageFix" result="effect1_dropShadow_147_195"/>
<feBlend mode="normal" in="SourceGraphic" in2="effect1_dropShadow_147_195" result="shape"/>
</filter>
</defs>
</svg>
