<svg xmlns="http://www.w3.org/2000/svg" width="88" height="143" fill="none" viewBox="0 0 88 143"><mask id="a" width="89" height="143" x="-.43" y="-.211" fill="#000" maskUnits="userSpaceOnUse"><path fill="#fff" d="M-.43-.211h89v143h-89z"/><path d="M36.984 139.719q-10.545 0-19.726-3.125-8.984-3.32-14.258-7.813v-25.586l8.984 5.86a54.4 54.4 0 0 0 9.961 4.883q5.47 1.757 12.11 1.757 10.156 0 16.797-4.687 6.836-4.883 6.836-14.063 0-5.467-3.516-9.18-3.516-3.71-9.18-5.468-5.469-1.758-11.719-1.758H22.531V59.445h10.742q6.837 0 12.305-1.172 5.469-1.366 8.79-4.492t3.32-8.593q0-5.86-3.516-9.766-3.32-4.102-8.984-6.25-5.47-2.148-11.915-2.149-8.398 0-14.843 3.516-6.25 3.32-11.914 8.79V13.937q5.078-4.689 12.89-7.813Q27.414 3 37.18 3q13.867 0 24.61 4.883Q72.53 12.57 78.585 21.164q6.055 8.399 6.055 19.531 0 8.79-3.907 15.04-3.906 6.054-9.765 9.765-5.86 3.711-11.914 4.883 6.054 1.367 11.914 5.078t9.765 9.96q3.907 6.25 3.907 15.04 0 11.523-6.25 20.312t-17.188 13.868q-10.742 5.078-24.219 5.078"/></mask><path fill="#fb0909" d="M36.984 139.719q-10.545 0-19.726-3.125-8.984-3.32-14.258-7.813v-25.586l8.984 5.86a54.4 54.4 0 0 0 9.961 4.883q5.47 1.757 12.11 1.757 10.156 0 16.797-4.687 6.836-4.883 6.836-14.063 0-5.467-3.516-9.18-3.516-3.71-9.18-5.468-5.469-1.758-11.719-1.758H22.531V59.445h10.742q6.837 0 12.305-1.172 5.469-1.366 8.79-4.492t3.32-8.593q0-5.86-3.516-9.766-3.32-4.102-8.984-6.25-5.47-2.148-11.915-2.149-8.398 0-14.843 3.516-6.25 3.32-11.914 8.79V13.937q5.078-4.689 12.89-7.813Q27.414 3 37.18 3q13.867 0 24.61 4.883Q72.53 12.57 78.585 21.164q6.055 8.399 6.055 19.531 0 8.79-3.907 15.04-3.906 6.054-9.765 9.765-5.86 3.711-11.914 4.883 6.054 1.367 11.914 5.078t9.765 9.96q3.907 6.25 3.907 15.04 0 11.523-6.25 20.312t-17.188 13.868q-10.742 5.078-24.219 5.078"/><path fill="#510303" fill-opacity=".44" d="m17.258 136.594-1.04 2.814.036.013.037.013zM3 128.781H0v1.386l1.055.898zm0-25.586 1.639-2.513L0 97.657v5.538zm8.984 5.86-1.638 2.513.024.015.024.016zm9.961 4.883-1.042 2.813.062.023.062.02zm28.907-2.93 1.73 2.451.007-.005.006-.005zm3.32-23.242-2.178 2.063zm-9.18-5.47-.918 2.857.015.005.014.004zm-22.46-1.757h-3v3h3zm0-21.094v-3h-3v3zm23.046-1.172.629 2.934.05-.01.049-.013zm8.594-22.851L51.84 37.31l.05.06.052.059zm-8.984-6.25-1.098 2.792.017.007.017.006zM18.43 30.539l1.407 2.65.015-.008.014-.008zM6.516 39.33h-3v7.066l5.083-4.909zm0-25.391L4.48 11.733l-.965.891v1.313zm12.89-7.813-1.09-2.795-.012.005-.012.005zM61.79 7.883l-1.241 2.73.02.01.021.01zm16.797 13.281-2.453 1.728.01.013.01.014zm2.148 34.57 2.521 1.627.012-.018.011-.019zm-21.68 14.649-.57-2.945-.09 5.871zm21.68 15.039 2.544-1.59zm-19.53 49.219-1.264-2.721-.01.004-.009.004zm-24.22 5.078v-3c-6.73 0-12.977-.997-18.76-2.965l-.966 2.84-.967 2.84c6.457 2.198 13.362 3.285 20.693 3.285zm-19.726-3.125 1.04-2.814c-5.777-2.135-10.186-4.585-13.353-7.282L3 128.781l-1.945 2.284c3.865 3.292 8.96 6.05 15.163 8.343zM3 128.781h3v-25.586H0v25.586zm0-25.586-1.639 2.513.281.183.018.012.017.011.018.012.017.011.018.011.017.012.018.011.017.012.018.011.017.012.018.011.035.023.018.011.017.012.018.011.017.012.018.011.035.023.035.023.035.023.035.023.035.023.035.023.035.022.036.023.035.023.035.023.035.023.035.023.035.023a1 1 0 0 1 .07.046l.562.366.561.366 1.123.732 1.123.733.281.183.28.183.282.183.28.183.281.183.281.183.28.184a45 45 0 0 1 .562.366l.281.183.28.183.282.183.28.183.281.183.28.183.282.184 1.638-2.513 1.64-2.513-1.124-.733-1.123-.732-.561-.366-.14-.092-.141-.091-.14-.092-.141-.091-.14-.092-.14-.092-.141-.091-.14-.092-.14-.091-.141-.092-.14-.091-.141-.092-.28-.183-.282-.183-.28-.183-.281-.183-.28-.183-.282-.183-.28-.184-.281-.183-.28-.183-.282-.183-.28-.183-.281-.183-.28-.183-.018-.012-.018-.011-.018-.012-.017-.011-.018-.011-.017-.012-.018-.011-.017-.012-.018-.011-.017-.012-.018-.011-.017-.012-.018-.011-.018-.011-.017-.012-.018-.011-.017-.012-.018-.011-.017-.012-.018-.011-.017-.012-.018-.011-.018-.011-.017-.012-.018-.011-.017-.012-.018-.011-.017-.012-.018-.011-.017-.012-.018-.011-.017-.011-.14-.092-.141-.092zm8.984 5.86-1.59 2.544a57.4 57.4 0 0 0 10.51 5.152l1.041-2.813 1.042-2.814a51.3 51.3 0 0 1-9.413-4.613zm9.961 4.883-.918 2.856c3.985 1.28 8.337 1.901 13.028 1.901v-6c-4.163 0-7.885-.551-11.192-1.614zm12.11 1.757v3c7.234 0 13.48-1.674 18.527-5.236l-1.73-2.451-1.73-2.451c-3.807 2.687-8.76 4.138-15.067 4.138zm16.797-4.687 1.743 2.441c5.428-3.877 8.093-9.52 8.093-16.504h-6c0 5.256-1.893 8.988-5.58 11.622zm6.836-14.063h3c0-4.354-1.428-8.17-4.338-11.243l-2.178 2.064-2.178 2.063c1.777 1.875 2.694 4.18 2.694 7.116zm-3.516-9.18 2.178-2.063c-2.75-2.903-6.28-4.97-10.469-6.27l-.889 2.865-.889 2.865c3.364 1.044 5.954 2.622 7.891 4.667zm-9.18-5.468.918-2.856c-3.967-1.276-8.186-1.902-12.637-1.902v6c3.883 0 7.477.546 10.801 1.614zm-11.719-1.758v-3H22.531v6h10.742zm-10.742 0h3V59.445h-6V80.54zm0-21.094v3h10.742v-6H22.531zm10.742 0v3c4.724 0 9.042-.404 12.934-1.238l-.629-2.934-.629-2.933c-3.4.728-7.285 1.105-11.676 1.105zm12.305-1.172.728 2.91c4.027-1.006 7.452-2.708 10.117-5.217l-2.056-2.185-2.056-2.184c-1.761 1.657-4.196 2.95-7.46 3.766zm8.79-4.492 2.055 2.185c2.935-2.762 4.264-6.484 4.264-10.779h-6c0 2.997-.883 5.005-2.376 6.41zm3.32-8.593h3c0-4.556-1.389-8.553-4.286-11.773l-2.23 2.007-2.23 2.007c1.79 1.988 2.746 4.502 2.746 7.758zm-3.516-9.766 2.332-1.888c-2.595-3.204-6.055-5.575-10.252-7.167l-1.065 2.805-1.063 2.805c3.354 1.272 5.883 3.068 7.716 5.333zm-8.984-6.25 1.096-2.792c-4.027-1.583-8.375-2.357-13.01-2.357v6c3.957 0 7.553.659 10.816 1.941zm-11.915-2.149v-3c-6.028 0-11.482 1.266-16.28 3.882l1.437 2.634 1.436 2.634c3.797-2.07 8.237-3.15 13.407-3.15zM18.43 30.54l-1.408-2.65c-4.44 2.36-8.635 5.462-12.59 9.28l2.084 2.16 2.083 2.157c3.597-3.473 7.345-6.23 11.238-8.298zM6.516 39.33h3V13.937h-6v25.39zm0-25.391 2.034 2.204c3.066-2.83 7.03-5.255 11.97-7.232l-1.114-2.785-1.114-2.785C12.816 5.53 8.187 8.312 4.481 11.733zm12.89-7.813 1.09 2.795C25.445 6.99 30.993 6 37.18 6V0c-6.834 0-13.134 1.094-18.864 3.33zM37.18 3v3c8.89 0 16.658 1.564 23.368 4.614l1.241-2.731 1.242-2.731C55.417 1.69 46.779 0 37.18 0zm24.61 4.883-1.2 2.75c6.717 2.93 11.859 7.029 15.543 12.259l2.453-1.728 2.452-1.728C76.65 13.208 70.594 8.452 62.988 5.133zm16.796 13.281-2.434 1.755c3.64 5.048 5.489 10.934 5.489 17.776h6c0-8.001-2.189-15.136-6.622-21.285zm6.055 19.531h-3c0 5.407-1.198 9.844-3.45 13.45l2.543 1.59 2.544 1.59c2.956-4.729 4.363-10.317 4.363-16.63zm-3.907 15.04-2.52-1.627c-2.378 3.686-5.326 6.625-8.85 8.858l1.605 2.534 1.605 2.534c4.288-2.715 7.85-6.286 10.681-10.673zM70.97 65.5l-1.605-2.535c-3.63 2.299-7.254 3.77-10.88 4.472l.57 2.946.57 2.945c4.448-.86 8.767-2.644 12.95-5.294zm-11.914 4.883-.661 2.926c3.665.828 7.32 2.375 10.97 4.686l1.605-2.534 1.605-2.534c-4.163-2.637-8.45-4.475-12.858-5.47zm11.914 5.078-1.605 2.534c3.502 2.219 6.445 5.207 8.826 9.017l2.544-1.59 2.544-1.59c-2.827-4.523-6.395-8.176-10.704-10.905zm9.765 9.96-2.544 1.59c2.254 3.606 3.45 8.044 3.45 13.45h6c0-6.312-1.406-11.9-4.362-16.63zm3.907 15.04h-3c0 7.104-1.915 13.258-5.695 18.574l2.445 1.738 2.444 1.739c4.554-6.403 6.806-13.791 6.806-22.051zm-6.25 20.312-2.445-1.738c-3.83 5.386-9.13 9.692-16.006 12.885l1.263 2.721 1.264 2.721c7.707-3.579 13.865-8.518 18.368-14.85zm-17.188 13.868-1.282-2.713c-6.71 3.172-14.336 4.791-22.937 4.791v6c9.368 0 17.888-1.767 25.501-5.366z" mask="url(#a)"/></svg>