<svg xmlns="http://www.w3.org/2000/svg" width="92" height="140" fill="none" viewBox="0 0 92 140"><mask id="a" width="92" height="140" x="-.063" y="-.211" fill="#000" maskUnits="userSpaceOnUse"><path fill="#fff" d="M-.063-.211h92v140h-92z"/><path d="M42.453 3Q55.93 3 65.891 8.078q10.156 4.883 15.82 13.867 5.664 8.79 5.664 20.703 0 9.765-3.125 17.97-2.93 8.007-8.594 16.015-5.664 7.812-13.867 16.797a7271 7271 0 0 1-18.36 20.508h44.923v22.851H3v-10.937q18.75-20.313 31.445-34.18Q47.337 77.61 53.781 67.648q6.64-10.155 6.64-17.968 0-9.96-6.64-15.43-6.445-5.664-16.21-5.664-8.985 0-17.579 4.687Q11.4 37.961 5.93 43.82V16.086q5.859-5.078 15.625-8.984Q31.32 3 42.453 3"/></mask><path fill="#f0c9c9" d="M42.453 3Q55.93 3 65.891 8.078q10.156 4.883 15.82 13.867 5.664 8.79 5.664 20.703 0 9.765-3.125 17.97-2.93 8.007-8.594 16.015-5.664 7.812-13.867 16.797a7271 7271 0 0 1-18.36 20.508h44.923v22.851H3v-10.937q18.75-20.313 31.445-34.18Q47.337 77.61 53.781 67.648q6.64-10.155 6.64-17.968 0-9.96-6.64-15.43-6.445-5.664-16.21-5.664-8.985 0-17.579 4.687Q11.4 37.961 5.93 43.82V16.086q5.859-5.078 15.625-8.984Q31.32 3 42.453 3"/><path fill="#ac8989" fill-opacity=".34" d="m65.89 8.078-1.362 2.673.031.016.032.015zm15.82 13.867-2.537 1.6.008.013.008.012zm2.54 38.672-2.803-1.068-.008.019-.006.018zm-8.594 16.016 2.43 1.76.01-.014.01-.014zM61.79 93.43l-2.215-2.023-.012.013-.012.014zm-18.36 20.508-2.231-2.005-4.496 5.005h6.728zm44.923 0h3v-3h-3zm0 22.851v3h3v-3zm-85.352 0H0v3h3zm0-10.937-2.204-2.035-.796.862v1.173zm31.445-34.18-2.211-2.027-.001.001zm19.336-24.024-2.51-1.641-.005.006-.003.006zm0-33.398-1.98 2.254.036.031.037.03zm-33.789-.977-1.436-2.633zM5.93 43.82h-3v7.611l5.193-5.564zm0-27.734-1.965-2.267-1.035.897v1.37zm15.625-8.984 1.114 2.785.024-.01.023-.01zM42.453 6c8.607 0 15.935 1.62 22.075 4.75l2.725-5.345C60.113 1.765 51.815 0 42.453 0zm22.138 4.782c6.295 3.026 11.125 7.28 14.582 12.763l5.076-3.2C80.153 13.85 74.437 8.858 67.19 5.375zM79.189 23.57c3.422 5.31 5.186 11.63 5.186 19.078h6c0-8.436-2.012-15.919-6.142-22.328zm5.186 19.078c0 6.187-.989 11.81-2.928 16.901l5.606 2.136c2.228-5.846 3.322-12.202 3.322-19.037zm-2.942 16.938c-1.85 5.056-4.58 10.16-8.226 15.314l4.899 3.465c3.906-5.523 6.905-11.095 8.961-16.717zm-8.206 15.286c-3.695 5.097-8.242 10.608-13.653 16.535l4.43 4.046c5.527-6.053 10.224-11.74 14.081-17.06zM59.55 91.434a7119 7119 0 0 1-18.351 20.499l4.463 4.009A7098 7098 0 0 0 64.03 95.426zm-16.12 25.504h44.923v-6H43.43zm41.923-3v22.851h6v-22.851zm3 19.851H3v6h85.352zm-82.352 3v-10.937H0v10.937zm-.796-8.903a11514 11514 0 0 0 31.454-34.188l-4.425-4.052q-12.69 13.86-31.437 34.171zm31.453-34.187c8.648-9.434 15.217-17.581 19.643-24.42l-5.037-3.26c-4.169 6.441-10.49 14.31-19.03 23.626zM56.292 69.29c4.583-7.01 7.13-13.58 7.13-19.61h-6c0 4.385-1.88 9.795-6.152 16.327zm7.13-19.61c0-7.38-2.501-13.437-7.734-17.746l-3.814 4.632c3.622 2.982 5.548 7.211 5.548 13.114zm-7.66-17.683c-4.92-4.324-11.06-6.411-18.192-6.411v6c5.89 0 10.557 1.69 14.23 4.918zM37.57 25.586c-6.535 0-12.885 1.71-19.014 5.054l2.873 5.267C26.758 33 32.127 31.586 37.57 31.586zM18.556 30.64c-5.951 3.246-10.912 6.947-14.82 11.133l4.387 4.094c3.384-3.626 7.798-6.956 13.306-9.96zM8.93 43.82V16.086h-6V43.82zM7.894 18.353c3.582-3.104 8.472-5.945 14.775-8.466l-2.229-5.57c-6.717 2.686-12.244 5.835-16.475 9.502zm14.822-8.485C28.84 7.295 35.41 6 42.453 6V0c-7.8 0-15.163 1.439-22.06 4.336z" mask="url(#a)"/></svg>