<svg xmlns="http://www.w3.org/2000/svg" width="62" height="155" fill="none" viewBox="0 0 62 155"><mask id="a" width="63" height="155" x="-.788" y="-.165" fill="#000" maskUnits="userSpaceOnUse"><path fill="#fff" d="M-.788-.165h63v155h-63z"/><path d="M32.557 152.835V44.554L2 62.908V37.273Q31.43 23.02 48.553 2h10.664v150.835z"/></mask><path fill="#1e0202" d="M32.557 152.835V44.554L2 62.908V37.273Q31.43 23.02 48.553 2h10.664v150.835z"/><path fill="#910707" fill-opacity=".38" d="M32.557 152.835h-2v2h2zm0-108.281h2v-3.535l-3.03 1.82zM2 62.908H0v3.535l3.03-1.82zm0-25.635-.872-1.8L0 36.02v1.253zM48.553 2V0h-.95l-.6.737zm10.664 0h2V0h-2zm0 150.835v2h2v-2zm-24.66 0V44.554h-4v108.281zm-3.03-109.996L.97 61.194l2.06 3.429 30.557-18.355zM4 62.91V37.272H0v25.635zM2.872 39.072C22.7 29.47 38.469 17.545 50.103 3.263l-3.1-2.526C35.803 14.482 20.537 26.073 1.127 35.473zM48.552 4h10.665V0H48.553zm8.665-2v150.835h4V2zm2 148.835h-26.66v4h26.66z" mask="url(#a)"/></svg>